<?xml version="1.0" encoding="UTF-8" standalone="no"?>
<svg xmlns:inkscape="http://www.inkscape.org/namespaces/inkscape" xmlns:sodipodi="http://sodipodi.sourceforge.net/DTD/sodipodi-0.dtd" xmlns="http://www.w3.org/2000/svg" xmlns:svg="http://www.w3.org/2000/svg" id="Laag_1" version="1.1" viewBox="0 0 868.7099 298.01019" sodipodi:docname="Logo_TOS_blauw.svg" inkscape:version="1.3.2 (091e20e, 2023-11-25, custom)" width="868.7099" height="298.01019" inkscape:export-filename="Logo_TOS_blauw.png" inkscape:export-xdpi="300" inkscape:export-ydpi="300">
  <defs id="defs1">
    <style id="style1">
      .st0 {
        fill: #fff;
      }

      .st1 {
        fill: #2a4695;
      }
    </style>
  </defs>
  <path id="path8" style="mix-blend-mode:normal;fill:#2a4e95;fill-opacity:1;stroke:#2a4e95;stroke-opacity:1" class="st0" sodipodi:type="inkscape:offset" inkscape:radius="0" inkscape:original="M 89.189453 369.9668 L 89.189453 438.50781 L 200.72852 438.50781 L 200.72852 667.9668 L 286.71875 667.9668 L 286.71875 438.50781 L 536.01953 438.50781 C 564.11953 438.50781 568.79883 442.76781 568.79883 465.75781 L 568.79883 572.1875 L 568.79883 573.09766 L 654.80859 573.09766 L 654.80859 438.07617 C 654.80859 390.39617 633.51898 369.9668 583.70898 369.9668 L 89.189453 369.9668 z " d="m 89.189453,369.9668 v 68.54101 H 200.72852 V 667.9668 h 85.99023 V 438.50781 h 249.30078 c 28.1,0 32.7793,4.26 32.7793,27.25 v 106.42969 0.91016 h 86.00976 V 438.07617 c 0,-47.68 -21.28961,-68.10937 -71.09961,-68.10937 z" transform="translate(-89.189453,-369.9668)"></path>
  <path class="st0" d="m 868.68993,183.70018 v 46.83 c 0,47.68 -12.83,67.48 -63.07,67.48 h -464.71 c -49.38,0 -71.52,-20.44 -71.52,-68.12 V 94.86017 h 86.01 c 0,0.30001 0,0.62 0,0.93 v 106.43001 c 0,22.99 5.11,27.24 32.78,27.24 h 384.25 c 14.05,0 18.31,-4.25 18.31,-14.9 v -19.16 c 0,-10.64 -4.25,-14.9 -18.31,-14.9 h -117.27 c -50.24,0 -60.42,-20.44001 -60.42,-68.11001 v -44.27 c 0,-47.68 10.18,-68.11 60.42,-68.11 h 152.18 c 51.94,0 61.37,17.24 61.37,67.48 v 26.82 l -75.42,-0.64 v -11.92 c 0,-8.94 -3.83,-13.2 -14.05,-13.2 h -90.87 c -14.05,0 -18.31,4.26 -18.31,14.9 v 16.61 c 0,10.64 4.26,14.9 18.31,14.9 h 117.27 c 50.24,0 63.07,21.07 63.07,68.76001 z" id="path9" style="fill:#2a4e95;fill-opacity:1;stroke:#2a4e95;stroke-opacity:1"></path>
</svg>
